<?xml version="1.0" encoding="UTF-8" standalone="no"?><!DOCTYPE svg PUBLIC "-//W3C//DTD SVG 1.1//EN" "http://www.w3.org/Graphics/SVG/1.1/DTD/svg11.dtd"><svg width="100%" height="100%" viewBox="0 0 93 81" version="1.1" xmlns="http://www.w3.org/2000/svg" xmlns:xlink="http://www.w3.org/1999/xlink" xml:space="preserve" xmlns:serif="http://www.serif.com/" style="fill-rule:evenodd;clip-rule:evenodd;stroke-linecap:round;stroke-linejoin:round;stroke-miterlimit:1.5;"><path d="M47.001,13.332c10.75,0 19.477,7.528 19.477,16.8c0,13.518 -9.54,16.771 -19.477,16.801c-9.988,0.03 -19.478,-4.155 -19.478,-16.801c0,-9.272 8.728,-16.8 19.478,-16.8Z" style="fill:#f9e7cb;"/><g><path d="M52.007,63.837c18.371,29.683 42.048,18.515 40.851,-25.852c-0.463,-17.181 -14.291,-55.449 -33.225,-28.854c21.153,3.734 20.819,26.653 21.147,36.872c0.699,21.808 -10.454,26.405 -28.773,17.834Z" style="fill:#aadff3;"/></g><g><path d="M40.895,63.837c-18.372,29.683 -42.048,18.515 -40.851,-25.852c0.463,-17.181 14.29,-55.449 33.225,-28.854c-21.153,3.734 -20.819,26.653 -21.147,36.872c-0.699,21.808 10.454,26.405 28.773,17.834Z" style="fill:#aadff3;"/></g><path d="M28.603,17.999c2.595,3.469 2.827,6.437 8.067,7.836c1.315,0.351 6.101,0.419 7.78,0.586c-3.375,-2.63 -3.952,-5.558 1.155,-8.358" style="fill:#aadff3;"/><path d="M46.144,19.432c2.595,3.469 3.266,4.697 8.182,6.989c3.914,1.826 13.584,1.517 15.263,1.684c-1.82,-2.723 -4.592,-6.543 -1.131,-10.106" style="fill:#aadff3;"/><path d="M34.328,18.59c-10.528,19.955 -2.878,26.213 1.658,30.932c-6.218,1.425 -8.576,0.275 -12.687,-4.423c-7.811,-8.926 -3.764,-24.746 1.13,-32.946c4.874,-8.167 11.734,-10.738 18.914,-8.094c4.368,-1.302 11.512,-5.471 22.638,5.857c4.901,4.989 11.684,20.73 3.87,33.858c-2.234,3.754 -8.831,8.942 -14.622,6.019c4.692,-0.919 16.102,-16.582 4.923,-28.656" style="fill:#aadff3;"/><path d="M40.472,15.453c-1.849,3.381 -3.295,7.375 1.849,14.679c1.473,2.091 6.801,5.026 9.469,3.466c-4.885,-5.873 -0.522,-12.755 3.835,-17.031" style="fill:#aadff3;"/><g><path d="M37.521,31.102l0,8.458" style="fill:none;stroke:#286690;stroke-width:4px;"/></g><g><path d="M55.636,31.102l0,8.458" style="fill:none;stroke:#286690;stroke-width:4px;"/></g><path d="M44.194,42.734c1.505,0.716 3.009,0.716 4.514,0" style="fill:none;stroke:#ff7a7a;stroke-width:1.5px;"/></svg>